<?xml version="1.0" encoding="UTF-8" standalone="no"?>
<!-- Created with Inkscape (http://www.inkscape.org/) -->
<svg
   xmlns:svg="http://www.w3.org/2000/svg"
   xmlns="http://www.w3.org/2000/svg"
   version="1.0"
   width="58.265629mm"
   height="55.352341mm"
   viewBox="0 0 220 209"
   id="svg2">
  <defs
     id="defs157" />
  <path
     d="M 117.96948,50 L 117.95569,33.264313"
     id="line8"
     style="font-size:15px;stroke:#000000;stroke-width:1;stroke-linecap:round;font-family:Helvetica" />
  <path
     d="M 192.45029,166.0797 L 173.0343,184.10217"
     id="line12"
     style="font-size:15px;stroke:#000000;stroke-width:1;stroke-linecap:round;font-family:Helvetica" />
  <path
     d="M 43.549713,166.0797 L 49.433365,140.2892"
     id="line16"
     style="font-size:15px;stroke:#000000;stroke-width:1;stroke-linecap:round;font-family:Helvetica" />
  <path
     d="M 50.134872,164.19038 L 54.547607,144.84752"
     id="line18"
     style="font-size:15px;stroke:#000000;stroke-width:1;stroke-linecap:round;font-family:Helvetica" />
  <path
     d="M 94.160553,150.49292 L 74.744568,132.47043"
     id="line22"
     style="font-size:15px;stroke:#000000;stroke-width:1;stroke-linecap:round;font-family:Helvetica" />
  <path
     d="M 87.651672,152.63762 L 73.089676,139.12076"
     id="line24"
     style="font-size:15px;stroke:#000000;stroke-width:1;stroke-linecap:round;font-family:Helvetica" />
  <path
     d="M 149,24.735527 L 163.73495,33.226562"
     id="line28"
     style="font-size:15px;stroke:#000000;stroke-width:1;stroke-linecap:round;font-family:Helvetica" />
  <path
     d="M 49.433365,140.2892 L 74.744568,132.47043"
     id="line32"
     style="font-size:15px;stroke:#000000;stroke-width:1;stroke-linecap:round;font-family:Helvetica" />
  <path
     d="M 118,112.56932 L 140.87509,99.328819"
     id="line36"
     style="font-size:15px;stroke:#000000;stroke-width:1;stroke-linecap:round;font-family:Helvetica" />
  <path
     d="M 104.76941,196.95239 L 88.276917,176.28342"
     id="line40"
     style="font-size:15px;stroke:#000000;stroke-width:1;stroke-linecap:round;font-family:Helvetica" />
  <path
     d="M 116,139 L 116,112.56932"
     id="line44"
     style="font-size:15px;stroke:#000000;stroke-width:1;stroke-linecap:round;font-family:Helvetica" />
  <path
     d="M 120,139 L 120,112.56932"
     id="line46"
     style="font-size:15px;stroke:#000000;stroke-width:1;stroke-linecap:round;font-family:Helvetica" />
  <path
     d="M 169,134.86278 L 186.56665,140.2892"
     id="line50"
     style="font-size:15px;stroke:#000000;stroke-width:1;stroke-linecap:round;font-family:Helvetica" />
  <path
     d="M 117.95569,33.264313 L 133,24.561928"
     id="line54"
     style="font-size:15px;stroke:#000000;stroke-width:1;stroke-linecap:round;font-family:Helvetica" />
  <path
     d="M 116.95712,34.997189 L 102.00143,26.378952"
     id="line58"
     style="font-size:15px;stroke:#000000;stroke-width:1;stroke-linecap:round;font-family:Helvetica" />
  <path
     d="M 118.95425,31.531437 L 103.99857,22.913204"
     id="line60"
     style="font-size:15px;stroke:#000000;stroke-width:1;stroke-linecap:round;font-family:Helvetica" />
  <path
     d="M 43.549713,166.0797 L 29,170.56696"
     id="line64"
     style="font-size:15px;stroke:#000000;stroke-width:1;stroke-linecap:round;font-family:Helvetica" />
  <path
     d="M 88.276917,176.28342 L 62.965698,184.10217"
     id="line68"
     style="font-size:15px;stroke:#000000;stroke-width:1;stroke-linecap:round;font-family:Helvetica" />
  <path
     d="M 83.342148,171.52805 L 64.358734,177.39212"
     id="line70"
     style="font-size:15px;stroke:#000000;stroke-width:1;stroke-linecap:round;font-family:Helvetica" />
  <path
     d="M 118,139 L 141.83945,150.49292"
     id="line74"
     style="font-size:15px;stroke:#000000;stroke-width:1;stroke-linecap:round;font-family:Helvetica" />
  <path
     d="M 141.83945,150.49292 L 147.72308,176.28342"
     id="line78"
     style="font-size:15px;stroke:#000000;stroke-width:1;stroke-linecap:round;font-family:Helvetica" />
  <path
     d="M 88.276917,176.28342 L 94.160553,150.49292"
     id="line82"
     style="font-size:15px;stroke:#000000;stroke-width:1;stroke-linecap:round;font-family:Helvetica" />
  <path
     d="M 131.23059,196.95239 L 104.76941,196.95239"
     id="line86"
     style="font-size:15px;stroke:#000000;stroke-width:1;stroke-linecap:round;font-family:Helvetica" />
  <path
     d="M 94.160553,150.49292 L 118,139"
     id="line90"
     style="font-size:15px;stroke:#000000;stroke-width:1;stroke-linecap:round;font-family:Helvetica" />
  <path
     d="M 147.72308,176.28342 L 131.23059,196.95239"
     id="line94"
     style="font-size:15px;stroke:#000000;stroke-width:1;stroke-linecap:round;font-family:Helvetica" />
  <path
     d="M 141.83945,150.49292 L 154.22098,139"
     id="line98"
     style="font-size:15px;stroke:#000000;stroke-width:1;stroke-linecap:round;font-family:Helvetica" />
  <path
     d="M 147.46902,153.45383 L 156.75519,144.83412"
     id="line100"
     style="font-size:15px;stroke:#000000;stroke-width:1;stroke-linecap:round;font-family:Helvetica" />
  <path
     d="M 95.102386,99.366158 L 118,112.56932"
     id="line104"
     style="font-size:15px;stroke:#000000;stroke-width:1;stroke-linecap:round;font-family:Helvetica" />
  <path
     d="M 186.56665,140.2892 L 192.45029,166.0797"
     id="line108"
     style="font-size:15px;stroke:#000000;stroke-width:1;stroke-linecap:round;font-family:Helvetica" />
  <path
     d="M 181.45239,144.84752 L 185.86511,164.19038"
     id="line110"
     style="font-size:15px;stroke:#000000;stroke-width:1;stroke-linecap:round;font-family:Helvetica" />
  <path
     d="M 147.72308,176.28342 L 173.0343,184.10217"
     id="line114"
     style="font-size:15px;stroke:#000000;stroke-width:1;stroke-linecap:round;font-family:Helvetica" />
  <path
     d="M 152.65784,171.52805 L 171.64127,177.39212"
     id="line116"
     style="font-size:15px;stroke:#000000;stroke-width:1;stroke-linecap:round;font-family:Helvetica" />
  <path
     d="M 140.87509,99.328819 L 140.87509,72.898148"
     id="line120"
     style="font-size:15px;stroke:#000000;stroke-width:1;stroke-linecap:round;font-family:Helvetica" />
  <path
     d="M 140.87509,72.898148 L 125,63.744286"
     id="line124"
     style="font-size:15px;stroke:#000000;stroke-width:1;stroke-linecap:round;font-family:Helvetica" />
  <path
     d="M 95.102386,72.935478 L 95.102386,99.366158"
     id="line128"
     style="font-size:15px;stroke:#000000;stroke-width:1;stroke-linecap:round;font-family:Helvetica" />
  <path
     d="M 110,64.312485 L 95.102386,72.935478"
     id="line132"
     style="font-size:15px;stroke:#000000;stroke-width:1;stroke-linecap:round;font-family:Helvetica" />
  <path
     d="M 163.73495,33.226562 L 179,24.396488"
     id="line136"
     style="font-size:15px;stroke:#000000;stroke-width:1;stroke-linecap:round;font-family:Helvetica" />
  <path
     d="M 62.965698,184.10217 L 43.549713,166.0797"
     id="line140"
     style="font-size:15px;stroke:#000000;stroke-width:1;stroke-linecap:round;font-family:Helvetica" />
  <path
     d="M 113.82851,63.52655 L 113.82851,52.789246 L 115.28603,52.789246 L 120.92567,61.219421 L 120.92567,52.789246 L 122.28798,52.789246 L 122.28798,63.52655 L 120.83046,63.52655 L 115.19081,55.08905 L 115.19081,63.52655 L 113.82851,63.52655 z"
     id="text142"
     style="font-size:15px;fill:#000000;stroke-linecap:round;font-family:helvetica" />
  <path
     d="M 157.27412,139.07388 L 157.27412,128.33658 L 158.73164,128.33658 L 164.37129,136.76675 L 164.37129,128.33658 L 165.7336,128.33658 L 165.7336,139.07388 L 164.27608,139.07388 L 158.63643,130.63638 L 158.63643,139.07388 L 157.27412,139.07388 z"
     id="text144"
     style="font-size:15px;fill:#000000;stroke-linecap:round;font-family:helvetica" />
  <path
     d="M 189.39554,20.999193 L 190.81644,21.35808 C 190.51858,22.525074 189.98269,23.414966 189.20877,24.027758 C 188.43484,24.640551 187.48879,24.946947 186.37064,24.946947 C 185.2134,24.946947 184.27224,24.711351 183.54715,24.24016 C 182.82205,23.76897 182.27029,23.086597 181.89188,22.193041 C 181.51346,21.29949 181.32425,20.340018 181.32425,19.314623 C 181.32425,18.196465 181.53787,17.221125 181.96512,16.388597 C 182.39236,15.556087 183.00027,14.923764 183.78885,14.491625 C 184.57742,14.059507 185.44534,13.843442 186.39261,13.843431 C 187.46682,13.843442 188.37014,14.11688 189.10257,14.663744 C 189.83498,15.210629 190.34524,15.979671 190.63333,16.970873 L 189.23441,17.300463 C 188.98537,16.519221 188.62405,15.950374 188.15042,15.59392 C 187.67678,15.237484 187.08108,15.059261 186.36331,15.059252 C 185.53811,15.059261 184.84841,15.257015 184.29422,15.652514 C 183.74002,16.04803 183.35061,16.579035 183.12601,17.245531 C 182.9014,17.912042 182.78909,18.599297 182.78909,19.307299 C 182.78909,20.220389 182.92215,21.017507 183.18826,21.698656 C 183.45437,22.379811 183.86819,22.888844 184.42972,23.225756 C 184.99124,23.562671 185.59915,23.731128 186.25345,23.731127 C 187.04934,23.731128 187.72317,23.501636 188.27493,23.04265 C 188.82668,22.583668 189.20022,21.902516 189.39554,20.999193 L 189.39554,20.999193 z M 192.61819,24.763842 L 192.61819,14.026537 L 194.03909,14.026537 L 194.03909,18.435717 L 199.62015,18.435717 L 199.62015,14.026537 L 201.04105,14.026537 L 201.04105,24.763842 L 199.62015,24.763842 L 199.62015,19.702806 L 194.03909,19.702806 L 194.03909,24.763842 L 192.61819,24.763842 z"
     id="text146"
     style="font-size:15px;fill:#000000;stroke-linecap:round;font-family:helvetica" />
  <path
     d="M 136.13383,19.534349 C 136.13383,17.75213 136.61235,16.356868 137.56938,15.348558 C 138.52641,14.340268 139.76176,13.836118 141.27544,13.836107 C 142.26664,13.836118 143.16019,14.072934 143.9561,14.546556 C 144.75199,15.020199 145.35868,15.680599 145.77617,16.527758 C 146.19364,17.374933 146.40238,18.335625 146.40239,19.409838 C 146.40238,20.498709 146.18265,21.472829 145.74321,22.332201 C 145.30375,23.191578 144.68119,23.842212 143.87553,24.284105 C 143.06986,24.726 142.20072,24.946947 141.26811,24.946947 C 140.25737,24.946947 139.35405,24.702807 138.55815,24.214525 C 137.76225,23.726245 137.15922,23.059742 136.74907,22.215014 C 136.33891,21.37029 136.13383,20.476737 136.13383,19.534349 L 136.13383,19.534349 z M 137.59868,19.556322 C 137.59868,20.850271 137.94658,21.869557 138.64238,22.614183 C 139.33818,23.358814 140.21098,23.731128 141.26079,23.731127 C 142.33012,23.731128 143.21024,23.355152 143.90117,22.603197 C 144.59208,21.851247 144.93754,20.784353 144.93755,19.402514 C 144.93754,18.528496 144.78983,17.765558 144.49443,17.113695 C 144.19901,16.461848 143.76688,15.956477 143.19804,15.597582 C 142.62919,15.238705 141.99076,15.059261 141.28276,15.059252 C 140.2769,15.059261 139.41142,15.40472 138.68633,16.095629 C 137.96122,16.786555 137.59868,17.940118 137.59868,19.556322 L 137.59868,19.556322 z"
     id="text150"
     style="font-size:15px;fill:#000000;stroke-linecap:round;font-family:helvetica" />
  <path
     d="M 90.133858,19.534349 C 90.133857,17.75213 90.612372,16.356868 91.569405,15.348558 C 92.526433,14.340268 93.761783,13.836118 95.275459,13.836107 C 96.266663,13.836118 97.160217,14.072934 97.956123,14.546556 C 98.752012,15.020199 99.358701,15.680599 99.776192,16.527758 C 100.19366,17.374933 100.4024,18.335625 100.40241,19.409838 C 100.4024,20.498709 100.18268,21.472829 99.743233,22.332201 C 99.30377,23.191578 98.681212,23.842212 97.875557,24.284105 C 97.069885,24.726 96.200745,24.946947 95.268135,24.946947 C 94.257388,24.946947 93.354069,24.702807 92.558174,24.214525 C 91.762273,23.726245 91.159247,23.059742 90.749092,22.215014 C 90.338935,21.37029 90.133857,20.476737 90.133858,19.534349 L 90.133858,19.534349 z M 91.598701,19.556322 C 91.598699,20.850271 91.946599,21.869557 92.642403,22.614183 C 93.3382,23.358814 94.211001,23.731128 95.260811,23.731127 C 96.33014,23.731128 97.210266,23.355152 97.901192,22.603197 C 98.5921,21.851247 98.937559,20.784353 98.937569,19.402514 C 98.937559,18.528496 98.789854,17.765558 98.494453,17.113695 C 98.199034,16.461848 97.766906,15.956477 97.198067,15.597582 C 96.629212,15.238705 95.990785,15.059261 95.282784,15.059252 C 94.276919,15.059261 93.411442,15.40472 92.686348,16.095629 C 91.961248,16.786555 91.598699,17.940118 91.598701,19.556322 L 91.598701,19.556322 z"
     id="text152"
     style="font-size:15px;fill:#000000;stroke-linecap:round;font-family:helvetica" />
  <path
     d="M 21.227116,173.38167 L 22.648014,173.74055 C 22.350153,174.90755 21.814264,175.79744 21.040348,176.41023 C 20.266414,177.02303 19.32037,177.32942 18.202213,177.32942 C 17.044982,177.32942 16.103821,177.09383 15.378727,176.62263 C 14.653627,176.15144 14.10187,175.46907 13.723454,174.57552 C 13.345035,173.68196 13.155826,172.72249 13.155827,171.6971 C 13.155826,170.57894 13.369449,169.6036 13.796696,168.77107 C 14.22394,167.93856 14.83185,167.30624 15.620426,166.8741 C 16.408996,166.44198 17.276915,166.22592 18.224186,166.22591 C 19.298398,166.22592 20.201717,166.49935 20.934147,167.04622 C 21.666559,167.5931 22.176813,168.36215 22.464909,169.35335 L 21.065983,169.68294 C 20.816951,168.9017 20.455623,168.33285 19.981998,167.97639 C 19.508359,167.61996 18.912656,167.44174 18.194889,167.44173 C 17.369689,167.44174 16.679992,167.63949 16.125797,168.03499 C 15.571595,168.4305 15.182191,168.96151 14.957584,169.62801 C 14.732973,170.29452 14.620668,170.98177 14.62067,171.68977 C 14.620668,172.60286 14.753725,173.39998 15.01984,174.08113 C 15.285951,174.76229 15.699769,175.27132 16.261295,175.60823 C 16.822814,175.94515 17.430724,176.1136 18.085026,176.1136 C 18.880918,176.1136 19.554745,175.88411 20.10651,175.42513 C 20.65826,174.96614 21.031795,174.28499 21.227116,173.38167 L 21.227116,173.38167 z M 24.208073,177.14632 L 24.208073,166.40901 L 25.526432,166.40901 L 25.526432,177.14632 L 24.208073,177.14632 z"
     id="text154"
     style="font-size:15px;fill:#000000;stroke-linecap:round;font-family:helvetica" />
  <path
     d="M 202.297,27.146542 L 203.35168,27.005917 C 203.47278,27.603575 203.67883,28.034238 203.96985,28.297909 C 204.26086,28.561582 204.61535,28.693417 205.03333,28.693417 C 205.52942,28.693417 205.94836,28.521542 206.29016,28.177792 C 206.63195,27.834043 206.80285,27.408262 206.80286,26.900448 C 206.80285,26.416076 206.64465,26.016662 206.32825,25.702206 C 206.01184,25.387757 205.60949,25.23053 205.12122,25.230526 C 204.92199,25.23053 204.67395,25.269593 204.37708,25.347713 L 204.49426,24.421932 C 204.56457,24.42975 204.62121,24.433656 204.66418,24.433651 C 205.1134,24.433656 205.5177,24.316469 205.87708,24.082088 C 206.23645,23.847719 206.41613,23.486391 206.41614,22.998104 C 206.41613,22.611392 206.28527,22.29108 206.02356,22.037167 C 205.76184,21.783268 205.42395,21.656315 205.00989,21.656307 C 204.59973,21.656315 204.25793,21.785221 203.9845,22.043026 C 203.71106,22.300846 203.53528,22.687564 203.45715,23.203182 L 202.40247,23.015682 C 202.53137,22.308658 202.82434,21.760807 203.28137,21.372128 C 203.7384,20.983464 204.30676,20.789128 204.98645,20.78912 C 205.4552,20.789128 205.88684,20.889714 206.28137,21.090878 C 206.6759,21.292058 206.97766,21.566471 207.18665,21.91412 C 207.39562,22.261783 207.50012,22.630923 207.50012,23.021542 C 207.50012,23.392641 207.40051,23.730532 207.20129,24.035213 C 207.00207,24.339906 206.70715,24.582093 206.31653,24.761776 C 206.82434,24.878968 207.21887,25.122132 207.50012,25.491268 C 207.78137,25.860412 207.92199,26.322326 207.922,26.87701 C 207.92199,27.627012 207.64855,28.262754 207.10168,28.784237 C 206.5548,29.305721 205.8634,29.566463 205.02747,29.566463 C 204.27356,29.566463 203.64758,29.341854 203.14954,28.892635 C 202.65149,28.443418 202.36731,27.861387 202.297,27.146542 L 202.297,27.146542 z"
     id="text2388"
     style="font-size:12px;font-style:normal;font-weight:normal;fill:#000000;fill-opacity:1;stroke:none;stroke-width:1px;stroke-linecap:butt;stroke-linejoin:miter;stroke-opacity:1;font-family:Arial" />
</svg>
